<mxfile host="app.diagrams.net" agent="Mozilla/5.0 (Windows NT 10.0; Win64; x64) AppleWebKit/537.36 (KHTML, like Gecko) Chrome/128.0.0.0 Safari/537.36" version="28.0.7" pages="2">
  <diagram name="第 1 页" id="22BMKp5eYA45sCbfqpQU">
    <mxGraphModel dx="1417" dy="816" grid="1" gridSize="10" guides="1" tooltips="1" connect="1" arrows="1" fold="1" page="1" pageScale="1" pageWidth="827" pageHeight="1169" math="0" shadow="0">
      <root>
        <mxCell id="0" />
        <mxCell id="1" parent="0" />
        <mxCell id="_uqVd6KnnkXhXrc5HQJr-1" value="" style="rounded=1;whiteSpace=wrap;html=1;fillColor=#ffe6cc;strokeColor=#7EA6E0;" parent="1" vertex="1">
          <mxGeometry x="230" y="307" width="1219" height="555.25" as="geometry" />
        </mxCell>
        <mxCell id="_uqVd6KnnkXhXrc5HQJr-2" value="数据预处理" style="rounded=0;whiteSpace=wrap;html=1;strokeColor=none;fillColor=#ffe6cc;fontSize=23;fontStyle=1" parent="1" vertex="1">
          <mxGeometry x="305" y="339.25" width="120" height="40" as="geometry" />
        </mxCell>
        <mxCell id="YXFsQEXlU3DzgxvQB72V-38" value="" style="edgeStyle=orthogonalEdgeStyle;rounded=0;orthogonalLoop=1;jettySize=auto;html=1;" edge="1" parent="1" source="IYhBpOHOiFUnqWEjY2zH-1" target="YXFsQEXlU3DzgxvQB72V-35">
          <mxGeometry relative="1" as="geometry" />
        </mxCell>
        <mxCell id="IYhBpOHOiFUnqWEjY2zH-1" value="数据分割" style="rounded=1;whiteSpace=wrap;html=1;fillColor=#f8cecc;strokeColor=#b85450;fontSize=21;" vertex="1" parent="1">
          <mxGeometry x="305" y="405.75" width="120" height="69.25" as="geometry" />
        </mxCell>
        <mxCell id="IYhBpOHOiFUnqWEjY2zH-10" value="" style="endArrow=none;dashed=1;html=1;rounded=0;entryX=0.25;entryY=0;entryDx=0;entryDy=0;exitX=0.25;exitY=1;exitDx=0;exitDy=0;" edge="1" parent="1" source="_uqVd6KnnkXhXrc5HQJr-1" target="_uqVd6KnnkXhXrc5HQJr-1">
          <mxGeometry width="50" height="50" relative="1" as="geometry">
            <mxPoint x="450" y="582.25" as="sourcePoint" />
            <mxPoint x="500" y="532.25" as="targetPoint" />
          </mxGeometry>
        </mxCell>
        <mxCell id="IYhBpOHOiFUnqWEjY2zH-18" value="" style="endArrow=none;dashed=1;html=1;rounded=0;entryX=0.998;entryY=0.529;entryDx=0;entryDy=0;entryPerimeter=0;" edge="1" parent="1" target="_uqVd6KnnkXhXrc5HQJr-1">
          <mxGeometry width="50" height="50" relative="1" as="geometry">
            <mxPoint x="537" y="602.25" as="sourcePoint" />
            <mxPoint x="1446" y="606.27975" as="targetPoint" />
          </mxGeometry>
        </mxCell>
        <mxCell id="IYhBpOHOiFUnqWEjY2zH-19" value="训练模型" style="rounded=0;whiteSpace=wrap;html=1;strokeColor=none;fillColor=#ffe6cc;fontSize=23;fontStyle=1" vertex="1" parent="1">
          <mxGeometry x="944.5" y="332.25" width="120" height="40" as="geometry" />
        </mxCell>
        <mxCell id="IYhBpOHOiFUnqWEjY2zH-43" value="" style="rounded=0;whiteSpace=wrap;html=1;strokeColor=none;fillColor=#ffe6cc;" vertex="1" parent="1">
          <mxGeometry x="785" y="420.75" width="80" height="30" as="geometry" />
        </mxCell>
        <mxCell id="IYhBpOHOiFUnqWEjY2zH-26" value="" style="ellipse;whiteSpace=wrap;html=1;aspect=fixed;fillColor=#d5e8d4;strokeColor=#82b366;" vertex="1" parent="1">
          <mxGeometry x="785" y="430.75" width="10" height="10" as="geometry" />
        </mxCell>
        <mxCell id="IYhBpOHOiFUnqWEjY2zH-49" value="" style="rounded=0;whiteSpace=wrap;html=1;strokeColor=#9673a6;fillColor=#e1d5e7;" vertex="1" parent="1">
          <mxGeometry x="795" y="420.75" width="110" height="30" as="geometry" />
        </mxCell>
        <mxCell id="IYhBpOHOiFUnqWEjY2zH-27" value="" style="ellipse;whiteSpace=wrap;html=1;aspect=fixed;fillColor=#d5e8d4;strokeColor=#82b366;" vertex="1" parent="1">
          <mxGeometry x="795" y="430.75" width="10" height="10" as="geometry" />
        </mxCell>
        <mxCell id="IYhBpOHOiFUnqWEjY2zH-28" value="" style="ellipse;whiteSpace=wrap;html=1;aspect=fixed;fillColor=#d5e8d4;strokeColor=#82b366;" vertex="1" parent="1">
          <mxGeometry x="805" y="430.75" width="10" height="10" as="geometry" />
        </mxCell>
        <mxCell id="IYhBpOHOiFUnqWEjY2zH-30" value="" style="ellipse;whiteSpace=wrap;html=1;aspect=fixed;fillColor=#d5e8d4;strokeColor=#82b366;" vertex="1" parent="1">
          <mxGeometry x="815" y="430.75" width="10" height="10" as="geometry" />
        </mxCell>
        <mxCell id="IYhBpOHOiFUnqWEjY2zH-31" value="" style="ellipse;whiteSpace=wrap;html=1;aspect=fixed;fillColor=#d5e8d4;strokeColor=#82b366;" vertex="1" parent="1">
          <mxGeometry x="825" y="430.75" width="10" height="10" as="geometry" />
        </mxCell>
        <mxCell id="IYhBpOHOiFUnqWEjY2zH-32" value="" style="ellipse;whiteSpace=wrap;html=1;aspect=fixed;fillColor=#d5e8d4;strokeColor=#82b366;" vertex="1" parent="1">
          <mxGeometry x="825" y="430.75" width="10" height="10" as="geometry" />
        </mxCell>
        <mxCell id="IYhBpOHOiFUnqWEjY2zH-33" value="" style="ellipse;whiteSpace=wrap;html=1;aspect=fixed;fillColor=#d5e8d4;strokeColor=#82b366;" vertex="1" parent="1">
          <mxGeometry x="835" y="430.75" width="10" height="10" as="geometry" />
        </mxCell>
        <mxCell id="IYhBpOHOiFUnqWEjY2zH-34" value="" style="ellipse;whiteSpace=wrap;html=1;aspect=fixed;fillColor=#d5e8d4;strokeColor=#82b366;" vertex="1" parent="1">
          <mxGeometry x="845" y="430.75" width="10" height="10" as="geometry" />
        </mxCell>
        <mxCell id="IYhBpOHOiFUnqWEjY2zH-35" value="" style="ellipse;whiteSpace=wrap;html=1;aspect=fixed;fillColor=#d5e8d4;strokeColor=#82b366;" vertex="1" parent="1">
          <mxGeometry x="845" y="430.75" width="10" height="10" as="geometry" />
        </mxCell>
        <mxCell id="IYhBpOHOiFUnqWEjY2zH-36" value="" style="ellipse;whiteSpace=wrap;html=1;aspect=fixed;direction=south;fillColor=#d5e8d4;strokeColor=#82b366;" vertex="1" parent="1">
          <mxGeometry x="855" y="430.75" width="10" height="10" as="geometry" />
        </mxCell>
        <mxCell id="IYhBpOHOiFUnqWEjY2zH-37" value="" style="ellipse;whiteSpace=wrap;html=1;aspect=fixed;fillColor=#d5e8d4;strokeColor=#82b366;" vertex="1" parent="1">
          <mxGeometry x="865" y="430.75" width="10" height="10" as="geometry" />
        </mxCell>
        <mxCell id="IYhBpOHOiFUnqWEjY2zH-52" value="步长为1滑动获得预测数据集" style="rounded=0;whiteSpace=wrap;html=1;fontSize=7;fillColor=#ffe6cc;strokeColor=none;fontStyle=1" vertex="1" parent="1">
          <mxGeometry x="801.25" y="398.75" width="97.5" height="20" as="geometry" />
        </mxCell>
        <mxCell id="IYhBpOHOiFUnqWEjY2zH-38" value="" style="endArrow=none;dashed=1;html=1;dashPattern=1 3;strokeWidth=2;rounded=0;exitX=1;exitY=0.5;exitDx=0;exitDy=0;entryX=0.5;entryY=1;entryDx=0;entryDy=0;fillColor=#d5e8d4;strokeColor=#82b366;" edge="1" parent="1" source="IYhBpOHOiFUnqWEjY2zH-37" target="IYhBpOHOiFUnqWEjY2zH-39">
          <mxGeometry width="50" height="50" relative="1" as="geometry">
            <mxPoint x="895" y="460.75" as="sourcePoint" />
            <mxPoint x="945" y="410.75" as="targetPoint" />
          </mxGeometry>
        </mxCell>
        <mxCell id="IYhBpOHOiFUnqWEjY2zH-39" value="" style="ellipse;whiteSpace=wrap;html=1;aspect=fixed;direction=south;fillColor=#d5e8d4;strokeColor=#82b366;" vertex="1" parent="1">
          <mxGeometry x="895" y="430.75" width="10" height="10" as="geometry" />
        </mxCell>
        <mxCell id="IYhBpOHOiFUnqWEjY2zH-40" value="" style="ellipse;whiteSpace=wrap;html=1;aspect=fixed;direction=south;fillColor=#d5e8d4;strokeColor=#82b366;" vertex="1" parent="1">
          <mxGeometry x="905" y="430.75" width="10" height="10" as="geometry" />
        </mxCell>
        <mxCell id="IYhBpOHOiFUnqWEjY2zH-41" value="" style="ellipse;whiteSpace=wrap;html=1;aspect=fixed;direction=south;fillColor=#d5e8d4;strokeColor=#82b366;" vertex="1" parent="1">
          <mxGeometry x="915" y="430.75" width="10" height="10" as="geometry" />
        </mxCell>
        <mxCell id="IYhBpOHOiFUnqWEjY2zH-53" value="每组中前N个作为历史轨迹后Q个作为未来轨迹" style="rounded=0;whiteSpace=wrap;html=1;fontSize=7;fillColor=#ffe6cc;strokeColor=none;fontStyle=1" vertex="1" parent="1">
          <mxGeometry x="795" y="453.75" width="110" height="20" as="geometry" />
        </mxCell>
        <mxCell id="IYhBpOHOiFUnqWEjY2zH-57" value="" style="whiteSpace=wrap;html=1;aspect=fixed;strokeColor=light-dark(#957599, #EDEDED);" vertex="1" parent="1">
          <mxGeometry x="580" y="372.25" width="149" height="149" as="geometry" />
        </mxCell>
        <mxCell id="IYhBpOHOiFUnqWEjY2zH-59" value="整合所有无人机的轨迹点，按8:2的比例进行切分" style="rounded=0;whiteSpace=wrap;html=1;fontSize=7;fillColor=#ffe6cc;strokeColor=none;fontStyle=1" vertex="1" parent="1">
          <mxGeometry x="610.5" y="349.25" width="88" height="20" as="geometry" />
        </mxCell>
        <mxCell id="IYhBpOHOiFUnqWEjY2zH-61" value="" style="curved=1;endArrow=classic;html=1;rounded=0;exitX=0.001;exitY=0.148;exitDx=0;exitDy=0;exitPerimeter=0;fillColor=#d5e8d4;strokeColor=#82b366;" edge="1" parent="1">
          <mxGeometry width="50" height="50" relative="1" as="geometry">
            <mxPoint x="589.999" y="384.30199999999996" as="sourcePoint" />
            <mxPoint x="709.85" y="382.25" as="targetPoint" />
            <Array as="points">
              <mxPoint x="679.85" y="372.25" />
              <mxPoint x="639.85" y="392.25" />
            </Array>
          </mxGeometry>
        </mxCell>
        <mxCell id="IYhBpOHOiFUnqWEjY2zH-62" value="" style="curved=1;endArrow=classic;html=1;rounded=0;exitX=0.001;exitY=0.148;exitDx=0;exitDy=0;exitPerimeter=0;fillColor=#ffe6cc;strokeColor=#d79b00;" edge="1" parent="1">
          <mxGeometry width="50" height="50" relative="1" as="geometry">
            <mxPoint x="590" y="408.30199999999996" as="sourcePoint" />
            <mxPoint x="709.851" y="406.25" as="targetPoint" />
            <Array as="points">
              <mxPoint x="630" y="399.25" />
              <mxPoint x="679.851" y="396.25" />
              <mxPoint x="639.851" y="416.25" />
              <mxPoint x="660" y="419.25" />
              <mxPoint x="670" y="419.25" />
            </Array>
          </mxGeometry>
        </mxCell>
        <mxCell id="IYhBpOHOiFUnqWEjY2zH-63" value="" style="curved=1;endArrow=classic;html=1;rounded=0;exitX=0.001;exitY=0.148;exitDx=0;exitDy=0;exitPerimeter=0;fillColor=#fff2cc;strokeColor=#d6b656;" edge="1" parent="1">
          <mxGeometry width="50" height="50" relative="1" as="geometry">
            <mxPoint x="596.78" y="434.30199999999996" as="sourcePoint" />
            <mxPoint x="712.21" y="419.25" as="targetPoint" />
            <Array as="points">
              <mxPoint x="602.21" y="449.25" />
              <mxPoint x="617.21" y="429.25" />
              <mxPoint x="616.78" y="468.25" />
              <mxPoint x="642.21" y="429.25" />
              <mxPoint x="662.21" y="449.25" />
              <mxPoint x="676.78" y="428.25" />
              <mxPoint x="692.21" y="449.25" />
              <mxPoint x="712.21" y="419.25" />
            </Array>
          </mxGeometry>
        </mxCell>
        <mxCell id="IYhBpOHOiFUnqWEjY2zH-64" value="" style="endArrow=none;html=1;rounded=0;exitX=0;exitY=0.75;exitDx=0;exitDy=0;entryX=1;entryY=0.75;entryDx=0;entryDy=0;" edge="1" parent="1" source="IYhBpOHOiFUnqWEjY2zH-57" target="IYhBpOHOiFUnqWEjY2zH-57">
          <mxGeometry width="50" height="50" relative="1" as="geometry">
            <mxPoint x="620" y="502.25" as="sourcePoint" />
            <mxPoint x="670" y="452.25" as="targetPoint" />
          </mxGeometry>
        </mxCell>
        <mxCell id="IYhBpOHOiFUnqWEjY2zH-66" value="" style="endArrow=none;dashed=1;html=1;rounded=0;dashPattern=1 1;" edge="1" parent="1">
          <mxGeometry width="50" height="50" relative="1" as="geometry">
            <mxPoint x="641.75" y="467.25" as="sourcePoint" />
            <mxPoint x="667.25" y="467.25" as="targetPoint" />
          </mxGeometry>
        </mxCell>
        <mxCell id="IYhBpOHOiFUnqWEjY2zH-69" value="" style="endArrow=none;dashed=1;html=1;rounded=0;dashPattern=1 1;" edge="1" parent="1">
          <mxGeometry width="50" height="50" relative="1" as="geometry">
            <mxPoint x="641.75" y="475.25" as="sourcePoint" />
            <mxPoint x="667.25" y="475.25" as="targetPoint" />
          </mxGeometry>
        </mxCell>
        <mxCell id="IYhBpOHOiFUnqWEjY2zH-70" value="" style="endArrow=none;dashed=1;html=1;rounded=0;dashPattern=1 1;" edge="1" parent="1">
          <mxGeometry width="50" height="50" relative="1" as="geometry">
            <mxPoint x="641.75" y="471.25" as="sourcePoint" />
            <mxPoint x="667.25" y="471.25" as="targetPoint" />
          </mxGeometry>
        </mxCell>
        <mxCell id="IYhBpOHOiFUnqWEjY2zH-71" value="" style="curved=1;endArrow=classic;html=1;rounded=0;exitX=0.001;exitY=0.148;exitDx=0;exitDy=0;exitPerimeter=0;fillColor=#f8cecc;strokeColor=#b85450;" edge="1" parent="1">
          <mxGeometry width="50" height="50" relative="1" as="geometry">
            <mxPoint x="594.5699999999999" y="499.30199999999996" as="sourcePoint" />
            <mxPoint x="714.421" y="497.25" as="targetPoint" />
            <Array as="points">
              <mxPoint x="634.5699999999999" y="487.25" />
              <mxPoint x="644.5699999999999" y="487.25" />
              <mxPoint x="654.5699999999999" y="497.25" />
              <mxPoint x="640" y="502.25" />
              <mxPoint x="644.421" y="507.25" />
              <mxPoint x="684.5699999999999" y="507.25" />
              <mxPoint x="694.5699999999999" y="497.25" />
            </Array>
          </mxGeometry>
        </mxCell>
        <mxCell id="IYhBpOHOiFUnqWEjY2zH-72" value="" style="endArrow=none;dashed=1;html=1;rounded=0;dashPattern=1 1;" edge="1" parent="1">
          <mxGeometry width="50" height="50" relative="1" as="geometry">
            <mxPoint x="641.75" y="512.25" as="sourcePoint" />
            <mxPoint x="667.25" y="512.25" as="targetPoint" />
          </mxGeometry>
        </mxCell>
        <mxCell id="IYhBpOHOiFUnqWEjY2zH-73" value="" style="endArrow=none;dashed=1;html=1;rounded=0;dashPattern=1 1;" edge="1" parent="1">
          <mxGeometry width="50" height="50" relative="1" as="geometry">
            <mxPoint x="641.75" y="515.25" as="sourcePoint" />
            <mxPoint x="667.25" y="515.25" as="targetPoint" />
          </mxGeometry>
        </mxCell>
        <mxCell id="IYhBpOHOiFUnqWEjY2zH-74" value="" style="endArrow=none;dashed=1;html=1;rounded=0;dashPattern=1 1;" edge="1" parent="1">
          <mxGeometry width="50" height="50" relative="1" as="geometry">
            <mxPoint x="642" y="518.25" as="sourcePoint" />
            <mxPoint x="667.5" y="518.25" as="targetPoint" />
          </mxGeometry>
        </mxCell>
        <mxCell id="IYhBpOHOiFUnqWEjY2zH-77" value="" style="endArrow=classic;html=1;rounded=0;strokeWidth=6;entryX=0;entryY=0.5;entryDx=0;entryDy=0;curved=0;fillColor=#f8cecc;strokeColor=#b85450;" edge="1" parent="1">
          <mxGeometry width="50" height="50" relative="1" as="geometry">
            <mxPoint x="729" y="435.75" as="sourcePoint" />
            <mxPoint x="785" y="435.75" as="targetPoint" />
          </mxGeometry>
        </mxCell>
        <mxCell id="IYhBpOHOiFUnqWEjY2zH-78" value="训练集" style="rounded=0;whiteSpace=wrap;html=1;fontSize=7;fillColor=#ffe6cc;strokeColor=none;fontStyle=1" vertex="1" parent="1">
          <mxGeometry x="731" y="398.75" width="31" height="20" as="geometry" />
        </mxCell>
        <mxCell id="IYhBpOHOiFUnqWEjY2zH-79" value="测试集" style="rounded=0;whiteSpace=wrap;html=1;fontSize=7;fillColor=#ffe6cc;strokeColor=none;fontStyle=1" vertex="1" parent="1">
          <mxGeometry x="731" y="493.75" width="31" height="20" as="geometry" />
        </mxCell>
        <mxCell id="IYhBpOHOiFUnqWEjY2zH-80" value="" style="shape=table;startSize=0;container=1;collapsible=0;childLayout=tableLayout;fontSize=11;fillColor=none;strokeColor=none;" vertex="1" parent="1">
          <mxGeometry x="1129.5" y="405.75" width="60" height="60" as="geometry" />
        </mxCell>
        <mxCell id="IYhBpOHOiFUnqWEjY2zH-81" value="" style="shape=tableRow;horizontal=0;startSize=0;swimlaneHead=0;swimlaneBody=0;strokeColor=inherit;top=0;left=0;bottom=0;right=0;collapsible=0;dropTarget=0;fillColor=none;points=[[0,0.5],[1,0.5]];portConstraint=eastwest;fontSize=16;" vertex="1" parent="IYhBpOHOiFUnqWEjY2zH-80">
          <mxGeometry width="60" height="15" as="geometry" />
        </mxCell>
        <mxCell id="IYhBpOHOiFUnqWEjY2zH-82" value="E" style="shape=partialRectangle;html=1;whiteSpace=wrap;connectable=0;strokeColor=inherit;overflow=hidden;fillColor=none;top=0;left=0;bottom=0;right=0;pointerEvents=1;fontSize=12;align=left;spacingLeft=5;" vertex="1" parent="IYhBpOHOiFUnqWEjY2zH-81">
          <mxGeometry width="60" height="15" as="geometry">
            <mxRectangle width="60" height="15" as="alternateBounds" />
          </mxGeometry>
        </mxCell>
        <mxCell id="IYhBpOHOiFUnqWEjY2zH-83" value="" style="shape=tableRow;horizontal=0;startSize=0;swimlaneHead=0;swimlaneBody=0;strokeColor=inherit;top=0;left=0;bottom=0;right=0;collapsible=0;dropTarget=0;fillColor=none;points=[[0,0.5],[1,0.5]];portConstraint=eastwest;fontSize=16;" vertex="1" parent="IYhBpOHOiFUnqWEjY2zH-80">
          <mxGeometry y="15" width="60" height="15" as="geometry" />
        </mxCell>
        <mxCell id="IYhBpOHOiFUnqWEjY2zH-84" value="N" style="shape=partialRectangle;html=1;whiteSpace=wrap;connectable=0;strokeColor=inherit;overflow=hidden;fillColor=none;top=0;left=0;bottom=0;right=0;pointerEvents=1;fontSize=12;align=left;spacingLeft=5;" vertex="1" parent="IYhBpOHOiFUnqWEjY2zH-83">
          <mxGeometry width="60" height="15" as="geometry">
            <mxRectangle width="60" height="15" as="alternateBounds" />
          </mxGeometry>
        </mxCell>
        <mxCell id="IYhBpOHOiFUnqWEjY2zH-85" value="" style="shape=tableRow;horizontal=0;startSize=0;swimlaneHead=0;swimlaneBody=0;strokeColor=inherit;top=0;left=0;bottom=0;right=0;collapsible=0;dropTarget=0;fillColor=none;points=[[0,0.5],[1,0.5]];portConstraint=eastwest;fontSize=16;" vertex="1" parent="IYhBpOHOiFUnqWEjY2zH-80">
          <mxGeometry y="30" width="60" height="15" as="geometry" />
        </mxCell>
        <mxCell id="IYhBpOHOiFUnqWEjY2zH-86" value="H" style="shape=partialRectangle;html=1;whiteSpace=wrap;connectable=0;strokeColor=inherit;overflow=hidden;fillColor=none;top=0;left=0;bottom=0;right=0;pointerEvents=1;fontSize=12;align=left;spacingLeft=5;" vertex="1" parent="IYhBpOHOiFUnqWEjY2zH-85">
          <mxGeometry width="60" height="15" as="geometry">
            <mxRectangle width="60" height="15" as="alternateBounds" />
          </mxGeometry>
        </mxCell>
        <mxCell id="IYhBpOHOiFUnqWEjY2zH-87" style="shape=tableRow;horizontal=0;startSize=0;swimlaneHead=0;swimlaneBody=0;strokeColor=inherit;top=0;left=0;bottom=0;right=0;collapsible=0;dropTarget=0;fillColor=none;points=[[0,0.5],[1,0.5]];portConstraint=eastwest;fontSize=16;" vertex="1" parent="IYhBpOHOiFUnqWEjY2zH-80">
          <mxGeometry y="45" width="60" height="15" as="geometry" />
        </mxCell>
        <mxCell id="IYhBpOHOiFUnqWEjY2zH-88" value="V" style="shape=partialRectangle;html=1;whiteSpace=wrap;connectable=0;strokeColor=inherit;overflow=hidden;fillColor=none;top=0;left=0;bottom=0;right=0;pointerEvents=1;fontSize=12;align=left;spacingLeft=5;" vertex="1" parent="IYhBpOHOiFUnqWEjY2zH-87">
          <mxGeometry width="60" height="15" as="geometry">
            <mxRectangle width="60" height="15" as="alternateBounds" />
          </mxGeometry>
        </mxCell>
        <mxCell id="IYhBpOHOiFUnqWEjY2zH-90" value="" style="shape=curlyBracket;whiteSpace=wrap;html=1;rounded=1;labelPosition=left;verticalLabelPosition=middle;align=right;verticalAlign=middle;direction=north;" vertex="1" parent="1">
          <mxGeometry x="580" y="528.75" width="330" height="20" as="geometry" />
        </mxCell>
        <mxCell id="IYhBpOHOiFUnqWEjY2zH-93" value="数据切分" style="rounded=0;whiteSpace=wrap;html=1;strokeColor=none;fillColor=#ffe6cc;fontSize=12;" vertex="1" parent="1">
          <mxGeometry x="705" y="559" width="80" as="geometry" />
        </mxCell>
        <mxCell id="IYhBpOHOiFUnqWEjY2zH-94" value="" style="curved=1;endArrow=classic;html=1;rounded=0;exitX=0.001;exitY=0.148;exitDx=0;exitDy=0;exitPerimeter=0;fillColor=#b1ddf0;strokeColor=#10739e;strokeWidth=2;" edge="1" parent="1">
          <mxGeometry width="50" height="50" relative="1" as="geometry">
            <mxPoint x="939.5" y="437.55199999999996" as="sourcePoint" />
            <mxPoint x="1059.351" y="435.5" as="targetPoint" />
            <Array as="points">
              <mxPoint x="969.5" y="418.75" />
              <mxPoint x="1019.5" y="418.75" />
              <mxPoint x="989.351" y="445.5" />
              <mxPoint x="1019.5" y="458.75" />
            </Array>
          </mxGeometry>
        </mxCell>
        <mxCell id="IYhBpOHOiFUnqWEjY2zH-95" value="" style="endArrow=classic;html=1;rounded=0;" edge="1" parent="1">
          <mxGeometry relative="1" as="geometry">
            <mxPoint x="1062.5" y="436" as="sourcePoint" />
            <mxPoint x="1122.5" y="436" as="targetPoint" />
          </mxGeometry>
        </mxCell>
        <mxCell id="IYhBpOHOiFUnqWEjY2zH-96" value="特征提取" style="edgeLabel;resizable=0;html=1;;align=center;verticalAlign=middle;fontSize=7;labelBackgroundColor=none;" connectable="0" vertex="1" parent="IYhBpOHOiFUnqWEjY2zH-95">
          <mxGeometry relative="1" as="geometry">
            <mxPoint y="-6" as="offset" />
          </mxGeometry>
        </mxCell>
        <mxCell id="IYhBpOHOiFUnqWEjY2zH-97" value="神经网络模型" style="rounded=1;whiteSpace=wrap;html=1;fillColor=#ffe6cc;strokeColor=light-dark(#9b61c2, #996500);" vertex="1" parent="1">
          <mxGeometry x="1179.5" y="419.25" width="60" height="33" as="geometry" />
        </mxCell>
        <mxCell id="IYhBpOHOiFUnqWEjY2zH-98" value="" style="endArrow=classic;html=1;rounded=0;entryX=0;entryY=0.5;entryDx=0;entryDy=0;exitX=0.323;exitY=0.001;exitDx=0;exitDy=0;exitPerimeter=0;" edge="1" parent="1" source="IYhBpOHOiFUnqWEjY2zH-85" target="IYhBpOHOiFUnqWEjY2zH-97">
          <mxGeometry width="50" height="50" relative="1" as="geometry">
            <mxPoint x="1209.5" y="529" as="sourcePoint" />
            <mxPoint x="1259.5" y="479" as="targetPoint" />
          </mxGeometry>
        </mxCell>
        <mxCell id="IYhBpOHOiFUnqWEjY2zH-99" value="" style="curved=1;endArrow=classic;html=1;rounded=0;exitX=0.001;exitY=0.148;exitDx=0;exitDy=0;exitPerimeter=0;fillColor=#1ba1e2;strokeColor=#006EAF;strokeWidth=2;" edge="1" parent="1">
          <mxGeometry width="50" height="50" relative="1" as="geometry">
            <mxPoint x="1270.5" y="439.30199999999996" as="sourcePoint" />
            <mxPoint x="1390.351" y="437.25" as="targetPoint" />
            <Array as="points">
              <mxPoint x="1300.5" y="420.5" />
              <mxPoint x="1310.5" y="413.75" />
              <mxPoint x="1320.5" y="413.75" />
              <mxPoint x="1340.5" y="423.75" />
              <mxPoint x="1320.351" y="447.25" />
              <mxPoint x="1330.5" y="463.75" />
              <mxPoint x="1350.5" y="460.5" />
              <mxPoint x="1370.5" y="453.75" />
            </Array>
          </mxGeometry>
        </mxCell>
        <mxCell id="IYhBpOHOiFUnqWEjY2zH-102" value="" style="endArrow=classic;html=1;rounded=0;entryX=0;entryY=0.5;entryDx=0;entryDy=0;exitX=0.323;exitY=0.001;exitDx=0;exitDy=0;exitPerimeter=0;" edge="1" parent="1">
          <mxGeometry width="50" height="50" relative="1" as="geometry">
            <mxPoint x="1239.5" y="435.61" as="sourcePoint" />
            <mxPoint x="1270.5" y="435.61" as="targetPoint" />
          </mxGeometry>
        </mxCell>
        <mxCell id="YXFsQEXlU3DzgxvQB72V-2" value="" style="endArrow=none;html=1;rounded=0;edgeStyle=orthogonalEdgeStyle;" edge="1" parent="1">
          <mxGeometry width="50" height="50" relative="1" as="geometry">
            <mxPoint x="999.5" y="509" as="sourcePoint" />
            <mxPoint x="999.5" y="449" as="targetPoint" />
          </mxGeometry>
        </mxCell>
        <mxCell id="YXFsQEXlU3DzgxvQB72V-5" value="计算误差" style="rounded=1;whiteSpace=wrap;html=1;fillColor=#ffe6cc;strokeColor=light-dark(#9b61c2, #996500);" vertex="1" parent="1">
          <mxGeometry x="1179.5" y="491.75" width="60" height="33" as="geometry" />
        </mxCell>
        <mxCell id="YXFsQEXlU3DzgxvQB72V-6" value="" style="endArrow=classic;html=1;rounded=0;" edge="1" parent="1">
          <mxGeometry width="50" height="50" relative="1" as="geometry">
            <mxPoint x="999.5" y="509" as="sourcePoint" />
            <mxPoint x="1179.5" y="509" as="targetPoint" />
          </mxGeometry>
        </mxCell>
        <mxCell id="YXFsQEXlU3DzgxvQB72V-7" value="" style="endArrow=none;html=1;rounded=0;edgeStyle=orthogonalEdgeStyle;" edge="1" parent="1">
          <mxGeometry width="50" height="50" relative="1" as="geometry">
            <mxPoint x="1337.5" y="509" as="sourcePoint" />
            <mxPoint x="1337.5" y="462" as="targetPoint" />
          </mxGeometry>
        </mxCell>
        <mxCell id="YXFsQEXlU3DzgxvQB72V-11" value="" style="endArrow=classic;html=1;rounded=0;entryX=1;entryY=0.5;entryDx=0;entryDy=0;" edge="1" parent="1">
          <mxGeometry width="50" height="50" relative="1" as="geometry">
            <mxPoint x="1337.5" y="509" as="sourcePoint" />
            <mxPoint x="1240.5" y="510" as="targetPoint" />
          </mxGeometry>
        </mxCell>
        <mxCell id="YXFsQEXlU3DzgxvQB72V-12" value="" style="endArrow=classic;html=1;rounded=0;entryX=0.5;entryY=1;entryDx=0;entryDy=0;exitX=0.5;exitY=0;exitDx=0;exitDy=0;" edge="1" parent="1" source="YXFsQEXlU3DzgxvQB72V-5" target="IYhBpOHOiFUnqWEjY2zH-97">
          <mxGeometry width="50" height="50" relative="1" as="geometry">
            <mxPoint x="1129.5" y="639" as="sourcePoint" />
            <mxPoint x="1179.5" y="589" as="targetPoint" />
          </mxGeometry>
        </mxCell>
        <mxCell id="YXFsQEXlU3DzgxvQB72V-13" value="参数更新" style="edgeLabel;resizable=0;html=1;;align=center;verticalAlign=middle;fontSize=7;labelBackgroundColor=none;" connectable="0" vertex="1" parent="1">
          <mxGeometry x="1227.5" y="474.75" as="geometry" />
        </mxCell>
        <mxCell id="YXFsQEXlU3DzgxvQB72V-14" value="" style="shape=curlyBracket;whiteSpace=wrap;html=1;rounded=1;labelPosition=left;verticalLabelPosition=middle;align=right;verticalAlign=middle;direction=north;" vertex="1" parent="1">
          <mxGeometry x="944.5" y="528.75" width="430" height="20" as="geometry" />
        </mxCell>
        <mxCell id="YXFsQEXlU3DzgxvQB72V-15" value="模型训练" style="rounded=0;whiteSpace=wrap;html=1;strokeColor=none;fillColor=#ffe6cc;fontSize=12;" vertex="1" parent="1">
          <mxGeometry x="1119.5" y="559" width="80" as="geometry" />
        </mxCell>
        <mxCell id="YXFsQEXlU3DzgxvQB72V-16" value="预测轨迹" style="rounded=0;whiteSpace=wrap;html=1;strokeColor=none;fillColor=#ffe6cc;fontSize=23;fontStyle=1" vertex="1" parent="1">
          <mxGeometry x="944.5" y="612.25" width="120" height="40" as="geometry" />
        </mxCell>
        <mxCell id="YXFsQEXlU3DzgxvQB72V-17" value="" style="curved=1;endArrow=classic;html=1;rounded=0;exitX=0.001;exitY=0.148;exitDx=0;exitDy=0;exitPerimeter=0;fillColor=#b1ddf0;strokeColor=#10739e;strokeWidth=2;" edge="1" parent="1">
          <mxGeometry width="50" height="50" relative="1" as="geometry">
            <mxPoint x="801.25" y="674.5519999999999" as="sourcePoint" />
            <mxPoint x="920.8499999999999" y="672.75" as="targetPoint" />
            <Array as="points">
              <mxPoint x="831.25" y="655.75" />
              <mxPoint x="881.25" y="655.75" />
              <mxPoint x="851.1009999999999" y="682.5" />
              <mxPoint x="881.25" y="695.75" />
            </Array>
          </mxGeometry>
        </mxCell>
        <mxCell id="YXFsQEXlU3DzgxvQB72V-21" value="LSTM" style="rounded=1;whiteSpace=wrap;html=1;fillColor=#fad7ac;strokeColor=#b46504;" vertex="1" parent="1">
          <mxGeometry x="973.25" y="662.25" width="70" height="27" as="geometry" />
        </mxCell>
        <mxCell id="YXFsQEXlU3DzgxvQB72V-22" value="" style="endArrow=classic;html=1;rounded=0;entryX=0;entryY=0.5;entryDx=0;entryDy=0;" edge="1" parent="1" target="YXFsQEXlU3DzgxvQB72V-21">
          <mxGeometry width="50" height="50" relative="1" as="geometry">
            <mxPoint x="928.25" y="676.25" as="sourcePoint" />
            <mxPoint x="967.25" y="675.75" as="targetPoint" />
          </mxGeometry>
        </mxCell>
        <mxCell id="YXFsQEXlU3DzgxvQB72V-23" value="" style="endArrow=classic;html=1;rounded=0;entryX=0;entryY=0.5;entryDx=0;entryDy=0;" edge="1" parent="1">
          <mxGeometry width="50" height="50" relative="1" as="geometry">
            <mxPoint x="1044.25" y="676.25" as="sourcePoint" />
            <mxPoint x="1089.25" y="676.25" as="targetPoint" />
          </mxGeometry>
        </mxCell>
        <mxCell id="YXFsQEXlU3DzgxvQB72V-24" value="" style="curved=1;endArrow=classic;html=1;rounded=0;exitX=0.001;exitY=0.148;exitDx=0;exitDy=0;exitPerimeter=0;fillColor=#fad9d5;strokeColor=#ae4132;strokeWidth=2;" edge="1" parent="1">
          <mxGeometry width="50" height="50" relative="1" as="geometry">
            <mxPoint x="1094.45" y="674.5519999999999" as="sourcePoint" />
            <mxPoint x="1214.05" y="672.75" as="targetPoint" />
            <Array as="points">
              <mxPoint x="1124.45" y="655.75" />
              <mxPoint x="1174.45" y="655.75" />
              <mxPoint x="1144.301" y="682.5" />
              <mxPoint x="1174.45" y="695.75" />
            </Array>
          </mxGeometry>
        </mxCell>
        <mxCell id="YXFsQEXlU3DzgxvQB72V-25" value="" style="curved=1;endArrow=classic;html=1;rounded=0;exitX=0.001;exitY=0.148;exitDx=0;exitDy=0;exitPerimeter=0;fillColor=#b1ddf0;strokeColor=#10739e;strokeWidth=2;" edge="1" parent="1">
          <mxGeometry width="50" height="50" relative="1" as="geometry">
            <mxPoint x="798.1" y="741.0519999999999" as="sourcePoint" />
            <mxPoint x="917.6999999999999" y="739.25" as="targetPoint" />
            <Array as="points">
              <mxPoint x="828.1" y="722.25" />
              <mxPoint x="878.1" y="722.25" />
              <mxPoint x="847.9509999999999" y="749" />
              <mxPoint x="878.1" y="762.25" />
            </Array>
          </mxGeometry>
        </mxCell>
        <mxCell id="YXFsQEXlU3DzgxvQB72V-26" value="GRU" style="rounded=1;whiteSpace=wrap;html=1;fillColor=#fad7ac;strokeColor=#b46504;" vertex="1" parent="1">
          <mxGeometry x="970.1" y="728.75" width="70" height="27" as="geometry" />
        </mxCell>
        <mxCell id="YXFsQEXlU3DzgxvQB72V-27" value="" style="endArrow=classic;html=1;rounded=0;entryX=0;entryY=0.5;entryDx=0;entryDy=0;" edge="1" parent="1" target="YXFsQEXlU3DzgxvQB72V-26">
          <mxGeometry width="50" height="50" relative="1" as="geometry">
            <mxPoint x="925.1" y="742.75" as="sourcePoint" />
            <mxPoint x="964.1" y="742.25" as="targetPoint" />
          </mxGeometry>
        </mxCell>
        <mxCell id="YXFsQEXlU3DzgxvQB72V-28" value="" style="endArrow=classic;html=1;rounded=0;entryX=0;entryY=0.5;entryDx=0;entryDy=0;" edge="1" parent="1">
          <mxGeometry width="50" height="50" relative="1" as="geometry">
            <mxPoint x="1041.1" y="742.75" as="sourcePoint" />
            <mxPoint x="1086.1" y="742.75" as="targetPoint" />
          </mxGeometry>
        </mxCell>
        <mxCell id="YXFsQEXlU3DzgxvQB72V-29" value="" style="curved=1;endArrow=classic;html=1;rounded=0;exitX=0.001;exitY=0.148;exitDx=0;exitDy=0;exitPerimeter=0;fillColor=#d5e8d4;strokeColor=#82b366;strokeWidth=2;gradientColor=#97d077;" edge="1" parent="1">
          <mxGeometry width="50" height="50" relative="1" as="geometry">
            <mxPoint x="1091.3000000000002" y="741.0519999999999" as="sourcePoint" />
            <mxPoint x="1210.9" y="739.25" as="targetPoint" />
            <Array as="points">
              <mxPoint x="1121.3000000000002" y="722.25" />
              <mxPoint x="1171.3000000000002" y="722.25" />
              <mxPoint x="1141.1509999999998" y="749" />
              <mxPoint x="1171.3000000000002" y="762.25" />
            </Array>
          </mxGeometry>
        </mxCell>
        <mxCell id="YXFsQEXlU3DzgxvQB72V-30" value="" style="curved=1;endArrow=classic;html=1;rounded=0;exitX=0.001;exitY=0.148;exitDx=0;exitDy=0;exitPerimeter=0;fillColor=#b1ddf0;strokeColor=#10739e;strokeWidth=2;" edge="1" parent="1">
          <mxGeometry width="50" height="50" relative="1" as="geometry">
            <mxPoint x="798.1" y="801.0519999999999" as="sourcePoint" />
            <mxPoint x="917.6999999999999" y="799.25" as="targetPoint" />
            <Array as="points">
              <mxPoint x="828.1" y="782.25" />
              <mxPoint x="878.1" y="782.25" />
              <mxPoint x="847.9509999999999" y="809" />
              <mxPoint x="878.1" y="822.25" />
            </Array>
          </mxGeometry>
        </mxCell>
        <mxCell id="YXFsQEXlU3DzgxvQB72V-31" value="RNN" style="rounded=1;whiteSpace=wrap;html=1;fillColor=#fad7ac;strokeColor=#b46504;" vertex="1" parent="1">
          <mxGeometry x="970.1" y="788.75" width="70" height="27" as="geometry" />
        </mxCell>
        <mxCell id="YXFsQEXlU3DzgxvQB72V-32" value="" style="endArrow=classic;html=1;rounded=0;entryX=0;entryY=0.5;entryDx=0;entryDy=0;" edge="1" parent="1" target="YXFsQEXlU3DzgxvQB72V-31">
          <mxGeometry width="50" height="50" relative="1" as="geometry">
            <mxPoint x="925.1" y="802.75" as="sourcePoint" />
            <mxPoint x="964.1" y="802.25" as="targetPoint" />
          </mxGeometry>
        </mxCell>
        <mxCell id="YXFsQEXlU3DzgxvQB72V-33" value="" style="endArrow=classic;html=1;rounded=0;entryX=0;entryY=0.5;entryDx=0;entryDy=0;" edge="1" parent="1">
          <mxGeometry width="50" height="50" relative="1" as="geometry">
            <mxPoint x="1041.1" y="802.75" as="sourcePoint" />
            <mxPoint x="1086.1" y="802.75" as="targetPoint" />
          </mxGeometry>
        </mxCell>
        <mxCell id="YXFsQEXlU3DzgxvQB72V-34" value="" style="curved=1;endArrow=classic;html=1;rounded=0;exitX=0.001;exitY=0.148;exitDx=0;exitDy=0;exitPerimeter=0;fillColor=#ffcccc;strokeColor=#36393d;strokeWidth=2;" edge="1" parent="1">
          <mxGeometry width="50" height="50" relative="1" as="geometry">
            <mxPoint x="1091.3000000000002" y="801.0519999999999" as="sourcePoint" />
            <mxPoint x="1210.9" y="799.25" as="targetPoint" />
            <Array as="points">
              <mxPoint x="1121.3000000000002" y="782.25" />
              <mxPoint x="1171.3000000000002" y="782.25" />
              <mxPoint x="1141.1509999999998" y="809" />
              <mxPoint x="1171.3000000000002" y="822.25" />
            </Array>
          </mxGeometry>
        </mxCell>
        <mxCell id="YXFsQEXlU3DzgxvQB72V-39" value="" style="edgeStyle=orthogonalEdgeStyle;rounded=0;orthogonalLoop=1;jettySize=auto;html=1;" edge="1" parent="1" source="YXFsQEXlU3DzgxvQB72V-35" target="YXFsQEXlU3DzgxvQB72V-36">
          <mxGeometry relative="1" as="geometry" />
        </mxCell>
        <mxCell id="YXFsQEXlU3DzgxvQB72V-35" value="处理异常值和缺失值" style="rounded=1;whiteSpace=wrap;html=1;fillColor=#f8cecc;strokeColor=#b85450;fontSize=21;" vertex="1" parent="1">
          <mxGeometry x="305" y="523.25" width="120" height="69.25" as="geometry" />
        </mxCell>
        <mxCell id="YXFsQEXlU3DzgxvQB72V-40" value="" style="edgeStyle=orthogonalEdgeStyle;rounded=0;orthogonalLoop=1;jettySize=auto;html=1;" edge="1" parent="1" source="YXFsQEXlU3DzgxvQB72V-36" target="YXFsQEXlU3DzgxvQB72V-37">
          <mxGeometry relative="1" as="geometry" />
        </mxCell>
        <mxCell id="YXFsQEXlU3DzgxvQB72V-36" value="坐标系转换" style="rounded=1;whiteSpace=wrap;html=1;fillColor=#f8cecc;strokeColor=#b85450;fontSize=21;" vertex="1" parent="1">
          <mxGeometry x="305" y="642.75" width="120" height="69.25" as="geometry" />
        </mxCell>
        <mxCell id="YXFsQEXlU3DzgxvQB72V-37" value="轨迹插值" style="rounded=1;whiteSpace=wrap;html=1;fillColor=#f8cecc;strokeColor=#b85450;fontSize=21;" vertex="1" parent="1">
          <mxGeometry x="305" y="763.25" width="120" height="69.25" as="geometry" />
        </mxCell>
      </root>
    </mxGraphModel>
  </diagram>
  <diagram id="chjYJfPr6kOcNZBsTTgN" name="第 2 页">
    <mxGraphModel grid="1" page="1" gridSize="10" guides="1" tooltips="1" connect="1" arrows="1" fold="1" pageScale="1" pageWidth="827" pageHeight="1169" math="0" shadow="0">
      <root>
        <mxCell id="0" />
        <mxCell id="1" parent="0" />
      </root>
    </mxGraphModel>
  </diagram>
</mxfile>
